<?xml version="1.0" encoding="UTF-8"?>
<svg xmlns="http://www.w3.org/2000/svg" viewBox="0 0 107.57 108.89">
  <g>
    <path fill="#3776AB" d="M95.67,41.98c-5.42,0-9.99,3.63-11.43,8.59-.39,1.35-1.62,2.29-3.02,2.29h-12.08c-4.52,0-6.78-5.47-3.59-8.66l8.36-8.36c1-1,2.53-1.2,3.76-.52,4.52,2.49,10.32,1.82,14.15-2.01,4.8-4.8,4.65-12.68-.47-17.29-4.61-4.15-11.83-3.99-16.27.34-3.93,3.84-4.63,9.7-2.12,14.27.68,1.23.47,2.76-.52,3.75l-8.97,8.97c-3.2,3.2-8.66.93-8.66-3.59v-13.4c0-1.41.93-2.63,2.28-3.02,5.04-1.46,8.7-6.14,8.59-11.67-.12-6.17-5.1-11.33-11.26-11.65-6.87-.36-12.56,5.1-12.56,11.89,0,5.42,3.63,9.99,8.59,11.43,1.35.39,2.29,1.62,2.29,3.02v13.4c0,4.52-5.47,6.78-8.66,3.59l-8.97-8.97c-.99-.99-1.2-2.52-.52-3.75,2.52-4.57,1.82-10.43-2.12-14.27-4.44-4.33-11.65-4.49-16.27-.34-5.11,4.6-5.27,12.48-.47,17.29,3.83,3.83,9.63,4.5,14.15,2.01,1.23-.68,2.76-.48,3.76.52l8.36,8.36c3.2,3.2.93,8.66-3.59,8.66h-12.07c-1.41,0-2.63-.94-3.02-2.29-1.44-4.96-6.01-8.59-11.43-8.59C5.12,41.98-.35,47.66.02,54.53c.32,6.16,5.48,11.14,11.65,11.26,5.53.11,10.22-3.55,11.68-8.59.39-1.35,1.62-2.28,3.02-2.28h13.18c4.52,0,6.78,5.47,3.59,8.66l-9.47,9.47c-1,1-2.53,1.2-3.76.52-4.52-2.49-10.32-1.82-14.15,2.01-4.8,4.8-4.65,12.68.47,17.29,4.61,4.15,11.82,3.99,16.27-.34,3.93-3.84,4.64-9.7,2.12-14.27-.68-1.23-.47-2.76.52-3.75l8.97-8.97c3.2-3.2,8.66-.93,8.66,3.59v13.4c0,1.41-.94,2.63-2.29,3.02-4.96,1.44-8.59,6.01-8.59,11.43,0,6.79,5.68,12.25,12.56,11.89,6.16-.33,11.14-5.48,11.26-11.65.11-5.53-3.56-10.22-8.59-11.67-1.35-.39-2.28-1.62-2.28-3.02v-13.4c0-4.52,5.47-6.78,8.66-3.59l8.97,8.97c.99.99,1.2,2.52.52,3.75-2.52,4.57-1.82,10.43,2.12,14.27,4.44,4.33,11.66,4.49,16.27.34,5.11-4.6,5.27-12.48.47-17.29-3.83-3.83-9.63-4.5-14.15-2.01-1.23.68-2.76.48-3.76-.52l-9.47-9.47c-3.2-3.2-.93-8.66,3.59-8.66h13.2c1.4,0,2.63.93,3.02,2.28,1.46,5.04,6.14,8.7,11.68,8.59,6.17-.12,11.32-5.1,11.65-11.26.36-6.87-5.1-12.55-11.89-12.55Z"/>
  </g>
</svg> 